<?xml version="1.0" ?><svg data-name="Layer 1" id="Layer_1" viewBox="0 0 64 64" xmlns="http://www.w3.org/2000/svg"><path d="M21.15,52a.77.77,0,0,1-.45-.14c-.64-.1-2.94,0-4.22,0a22.55,22.55,0,0,1-2.5,0c-.85-.11-1-1.15-1.1-2.39-.07-1-.1-2.17-.12-3.14,0-.4,0-.78,0-1.08h0a31.09,31.09,0,0,0-.23-3.2c0-.33-.1-.66-.16-1a10.35,10.35,0,0,1-.22-3.48.77.77,0,0,1,.76-.66h0l6.17.05c.7,0,.81.7.89,1.15q.07.45.18,1.29c.12,1,.24,2.26.34,3.27.08.77.15,1.5.18,1.66.14.86.34,1.71.54,2.53a22.78,22.78,0,0,1,.73,4.27h0a.77.77,0,0,1-.73.81Zm-.77-.73Zm0,0Zm0,0Zm0,0Zm0,0Zm-5.77-.6Zm-1-12.15a12.68,12.68,0,0,0,.26,2.32c.06.35.13.71.18,1.07a32,32,0,0,1,.24,3.36h0c0,.31,0,.69,0,1.1a35,35,0,0,0,.24,4c.45,0,1.23,0,1.88-.06,1,0,2.22-.08,3.15-.08h.73a27,27,0,0,0-.61-3c-.2-.85-.41-1.73-.56-2.65,0-.2-.09-.73-.19-1.74-.12-1.16-.34-3.35-.49-4.33Z" fill="#1b1c20"/><path d="M16.76,49.73a1.94,1.94,0,0,1-1.6-.74,2,2,0,0,1-.05-2.15l0,0h0a2.3,2.3,0,0,1,2.92-1.13,1.86,1.86,0,0,1,1,2.48,2.37,2.37,0,0,1-1.9,1.55Zm.47-2.68a.79.79,0,0,0-.72.44h0v0c-.14.29-.15.5-.1.57a.61.61,0,0,0,.5.1.83.83,0,0,0,.68-.53c.15-.45,0-.53-.12-.56A.56.56,0,0,0,17.23,47.05Zm-1.41.09Z" fill="#1b1c20"/><path d="M28.79,43.88A4.87,4.87,0,0,1,27,43.56a.77.77,0,1,1,.56-1.43,6,6,0,0,0,3,0,10,10,0,0,1,3.58,0,2.33,2.33,0,0,0,2.41-.47l.07-.07a.82.82,0,0,0,.21-.88.85.85,0,0,0-.7-.59c-.54-.05-1.08-.05-1.6-.05a6.63,6.63,0,0,1-4.23-1c-.15-.1-.29-.22-.44-.33s-.5-.37-.74-.53c-2.47-1.59-6.89-1.57-8.52.71a.77.77,0,0,1-1.26-.89,6.53,6.53,0,0,1,5.08-2.45,9.53,9.53,0,0,1,5.53,1.33c.3.19.57.4.84.61l.42.31a5.31,5.31,0,0,0,3.32.69c.56,0,1.14,0,1.75.06a2.41,2.41,0,0,1,1.41,4.11,3.87,3.87,0,0,1-3.88.94,8.63,8.63,0,0,0-3,.06A15.55,15.55,0,0,1,28.79,43.88Z" fill="#1b1c20"/><path d="M34.28,50.34a34,34,0,0,1-6.41-.93,35.93,35.93,0,0,0-6.69-1,.79.79,0,0,1-.77-.78.77.77,0,0,1,.78-.76,38.14,38.14,0,0,1,7,1c2.88.59,5.6,1.15,7.44.79a31.27,31.27,0,0,0,5.68-3,16,16,0,0,0,2.88-3.9,27.89,27.89,0,0,1,1.66-2.67.58.58,0,0,0,0-.61.53.53,0,0,0-.47-.31,2.51,2.51,0,0,0-1.18.29,9.75,9.75,0,0,0-1.07,1.16C42,41,40.23,43,38.18,43.93L38,44c-1.08.19-3,.39-3.76-.38a.77.77,0,0,1,1.08-1.09,5.91,5.91,0,0,0,2.32,0c1.7-.78,3.29-2.65,4.35-3.88a6.39,6.39,0,0,1,1.52-1.52,4.06,4.06,0,0,1,1.94-.47,2.07,2.07,0,0,1,1.81,1.15A2.15,2.15,0,0,1,47.1,40a24.35,24.35,0,0,0-1.57,2.54,17.45,17.45,0,0,1-3.1,4.2,28.58,28.58,0,0,1-6.51,3.51A8.57,8.57,0,0,1,34.28,50.34Z" fill="#1b1c20"/><path d="M44.57,38h-.12a.78.78,0,0,1-.65-.88c.88-5.85-1.48-13.44-5-16.25-.31-.24-.63-.24-1.38,0a.77.77,0,0,1-.8-.21.78.78,0,0,1-.15-.81,26.18,26.18,0,0,1,2.48-4c.7-1,1.43-2.05,2-2.92a.28.28,0,0,0,0-.34.27.27,0,0,0-.33-.08,5.59,5.59,0,0,0-2.75,2.19A.77.77,0,0,1,36.39,14a9.37,9.37,0,0,0,.23-3.35,1.84,1.84,0,0,0-.37.33,12.42,12.42,0,0,0-1.13,1.62c-.64,1-1.06,1.72-1.73,1.8a1,1,0,0,1-.81-.28.75.75,0,0,1-.17-.85,2.06,2.06,0,0,0-.27-2,.77.77,0,0,0-.56-.22.74.74,0,0,0-.53.31,4.41,4.41,0,0,0-.34,2.54.77.77,0,0,1-1.38.51c-1.24-1.63-2.18-2-3.16-1.72a18.42,18.42,0,0,0,5.33,7,.75.75,0,0,1,.3.66.77.77,0,0,1-.39.62c-4.58,2.62-7.67,8.92-7.5,15.31a.77.77,0,0,1-1.54,0c-.17-6.5,2.81-12.94,7.35-16.11a20.23,20.23,0,0,1-5.28-7.7.78.78,0,0,1,.38-1,3.84,3.84,0,0,1,4.39.48,3.46,3.46,0,0,1,.59-1.58,2.24,2.24,0,0,1,3.44-.26A3,3,0,0,1,34,11.56c.85-1.35,1.89-2.88,3.3-2.42a1.16,1.16,0,0,1,.7.71,5.92,5.92,0,0,1,.24,2.22,8.41,8.41,0,0,1,1.7-.93,1.82,1.82,0,0,1,2.26,2.64c-.55.91-1.29,2-2,3-.58.84-1.18,1.69-1.63,2.41a2.4,2.4,0,0,1,1.17.49c2,1.57,3.68,4.37,4.74,7.88a23.31,23.31,0,0,1,.88,9.81A.78.78,0,0,1,44.57,38Z" fill="#1b1c20"/><path d="M33.86,21.85a7.57,7.57,0,0,1-3.15-.8.77.77,0,0,1,.64-1.4c2.16,1,3.31.81,5.46-.19a.76.76,0,0,1,1,.37.77.77,0,0,1-.37,1A8.46,8.46,0,0,1,33.86,21.85Z" fill="#1b1c20"/><path d="M38.43,20.35A.77.77,0,0,1,37.8,20,.79.79,0,0,1,38,19c2.82-2,8.09-2.75,11.36-2.27a.77.77,0,0,1-.22,1.52c-3-.44-7.82.26-10.24,2A.76.76,0,0,1,38.43,20.35Z" fill="#1b1c20"/><path d="M47.28,26c-2.31,0-5.35-2.66-7.17-4.25l-.62-.53a.79.79,0,0,1-.23-.35.75.75,0,0,1-.4-.66.77.77,0,0,1,.77-.78l1.23,0c2.28-.08,5.12-.18,7,1.48a4.94,4.94,0,0,1,1.66,3A1.89,1.89,0,0,1,49,25.3,2.31,2.31,0,0,1,47.28,26ZM41.5,20.92A26,26,0,0,0,45,23.59c.82.5,2.29,1.24,2.89.63a.35.35,0,0,0,.09-.28A3.59,3.59,0,0,0,46.86,22C45.55,20.9,43.46,20.86,41.5,20.92Z" fill="#1b1c20"/><path d="M35.21,34.6a4.2,4.2,0,0,1-2.88-1.14,1.69,1.69,0,0,1-.44-1.4.77.77,0,1,1,1.52.21s0,.07.08.17a2.75,2.75,0,0,0,1.74.62A2.83,2.83,0,0,0,37,32.25a.67.67,0,0,0,.2-.47c-.05-.4-.63-.89-1.53-1.28l-.33-.14a5.35,5.35,0,0,1-2.46-1.65,2.49,2.49,0,0,1-.38-2.05A2.53,2.53,0,0,1,33.83,25a4,4,0,0,1,3.94.49.77.77,0,0,1-.88,1.26,2.55,2.55,0,0,0-2.38-.37A1,1,0,0,0,34,27a1,1,0,0,0,.15.79,4.29,4.29,0,0,0,1.8,1.11l.34.14c1.49.65,2.33,1.52,2.45,2.52a2.11,2.11,0,0,1-.57,1.66,4.29,4.29,0,0,1-2.9,1.34Z" fill="#1b1c20"/><path d="M35.27,25.32a.76.76,0,0,1-.76-.72l-.08-1.41A.77.77,0,0,1,36,23.1L36,24.51a.76.76,0,0,1-.72.81Z" fill="#1b1c20"/><path d="M35.33,36.46h0a.77.77,0,0,1-.76-.78l0-1.93a.77.77,0,1,1,1.54,0l0,1.93A.77.77,0,0,1,35.33,36.46Z" fill="#1b1c20"/></svg>